<svg width="49" height="296" viewBox="0 0 49 296" fill="none" xmlns="http://www.w3.org/2000/svg">
<g clip-path="url(#clip0_1_4102)">
<path d="M21.4126 22.4946C24.0613 20.2372 25.7526 16.8748 25.7526 13.1336C25.7526 6.3141 20.1681 0.789062 13.2752 0.789062C6.38235 0.789062 0.797852 6.3141 0.797852 13.1336C0.797852 19.3848 5.58457 24.5625 11.6796 25.3676V281.95C11.6796 288.865 17.3439 294.484 24.3485 294.484C31.3371 294.484 37.0173 288.88 37.0173 281.95V25.415C43.3039 24.7835 48.2182 19.5268 48.2182 13.1336C48.2182 6.3141 42.6337 0.789062 35.7409 0.789062C30.8106 0.789062 26.5663 3.61473 24.524 7.70325" fill="white"/>
<path d="M21.4126 22.4946C24.0613 20.2372 25.7526 16.8748 25.7526 13.1336C25.7526 6.3141 20.1681 0.789062 13.2752 0.789062C6.38235 0.789062 0.797852 6.3141 0.797852 13.1336C0.797852 19.3848 5.58457 24.5625 11.6796 25.3676V281.95C11.6796 288.865 17.3439 294.484 24.3485 294.484C31.3371 294.484 37.0173 288.88 37.0173 281.95V25.415C43.3039 24.7835 48.2182 19.5268 48.2182 13.1336C48.2182 6.3141 42.6337 0.789062 35.7409 0.789062C30.8106 0.789062 26.5663 3.61473 24.524 7.70325" stroke="black" stroke-width="2" stroke-miterlimit="10"/>
<path d="M11.6797 276.836H37.0174V281.951C37.0174 288.865 31.3531 294.485 24.3485 294.485C17.3599 294.485 11.6797 288.881 11.6797 281.951V276.836Z" fill="#FFC5D2" stroke="black" stroke-miterlimit="10"/>
<path d="M37.0174 276.11H11.6797V277.562H37.0174V276.11Z" fill="#1C1C1B" stroke="black" stroke-miterlimit="10"/>
<path d="M23.7578 294.484V288.123C23.7578 287.712 24.0929 287.396 24.4918 287.396C24.8907 287.396 25.2257 287.728 25.2257 288.123V294.484C25.2257 294.895 24.8907 295.21 24.4918 295.21C24.0929 295.21 23.7578 294.879 23.7578 294.484Z" fill="#1C1C1B" stroke="black" stroke-miterlimit="10"/>
</g>
<defs>
<clipPath id="clip0_1_4102">
<rect width="49" height="296" fill="white"/>
</clipPath>
</defs>
</svg>
